<svg xmlns="http://www.w3.org/2000/svg" xml:space="preserve" style="fill-rule:evenodd;clip-rule:evenodd;stroke-linejoin:round;stroke-miterlimit:2" viewBox="0 0 4000 4000"><path d="M218.9 5.57c.3.04.9.13 1.2.17 1.34 1.03 2.99 1.23 4.62 1.03l-.05.42c4.09-1.02 8.52.08 12.46-1.57 1.96 1.77 4.59.74 6.94.78 8.31-.21 16.62.25 24.93.47 5.25-.11 10.53-.53 15.76.12 9.69 1.2 19.52-.58 29.16 1.21 11.01.82 22.07.36 33.1.3 10.16-.28 20.32.15 30.48.17l.07.6c5.8-.57 11.56 1.79 17.28.36 12.82-1.58 25.76-1.44 38.66-1.34 1.86 0 3.73.21 5.56.65 1.41.97 3.55 1.3 4.35 2.96.64 5.28 1.29 10.58 1.21 15.92l1.38-.52c-.52.47-1.55 1.41-2.06 1.89l1.4.24c0 1.38.01 2.76.04 4.14h-1.36c.11 1.55.78 2.69 2.01 3.45-.31.17-.95.53-1.27.71-.33 2.78-.26 5.61-.75 8.38-.97 5.52.11 11.16-.73 16.69-2.5 13.95-2.03 28.19-3.58 42.23-1.73 26.02-2.64 52.08-4.99 78.05-.48 10.91.54 21.89-.82 32.76-.41 7.41.93 14.78.51 22.21-1.85 28.94-.48 57.97-.5 86.95.93 8.98.65 18.02.69 27.03.02 25.96-.03 51.96.05 77.9-.38.86-.77 1.72-1.19 2.57-3.37.21-7 .63-10.03-1.18-3.04-1.7-6.53-2-9.94-2.01l-.05-.59c-9.79-.46-19.63.38-29.37-.99-17.71-.29-35.39-.89-53.09-1.42-15.95-1.56-32.07.35-48-1.62-29.67-.01-59.34 0-89.01-.02-13.65-.08-27.3.23-40.95-.2-11.98-.36-23.97-.01-35.95.12-13.63 1.21-27.35 1.73-40.92 3.61-8.48 1.16-17.05 1.51-25.53 2.77-4.53 1.07-9.18.26-13.76.07-2.47-.04-4.9 1.33-7.33.59-.83-.8-1.59-1.66-2.28-2.58 6.97-7.32 13.65-14.9 20.7-22.14 5.58-6.8 10.87-13.83 16.32-20.73 5.36-6.68 10.29-13.74 16.22-19.92l.16-.39c1.15-.92 2.22-1.92 3.25-2.98 4.63-4.34 8.82-9.13 13.39-13.53 11.79-9.77 19.36-23.35 29.66-34.5 1.93-2.36 3.82-4.75 5.92-6.97 2.31-2.48 3.83-5.53 5.85-8.22 7.17-10.33 16.58-18.76 24.99-28.01 3.17-3.5 6.74-6.69 9.04-10.89 4.26-5.76 8.16-11.79 12.2-17.71 2.74-5.18 7.8-8.43 11.49-12.84 5.46-6.33 10.65-12.88 15.95-19.35-.19-1.67.1-3.67-1.24-4.96-1.48-1.21-3.46-.37-5.16-.32-1.97 2.5-3.96 4.98-5.72 7.63-3.46 5.31-8.62 9.2-12.23 14.39-4.26 5.85-8.75 11.53-13.29 17.16-.27.23-.79.69-1.06.92-1.4 1.73-2.87 3.41-4.12 5.27-3.99 6.1-9.12 11.31-13.92 16.76-5.39 5.32-9.86 11.47-14.84 17.16-6.46 8.15-13.7 15.63-20.06 23.87-5.76 6.31-11.79 12.47-16.6 19.57-3.4 4.45-7.83 7.97-11.68 12.01-3.74 3.99-7.15 8.27-10.73 12.4-1.77 2.21-3.71 4.27-5.51 6.44-4.26 5.13-8.89 9.99-12.42 15.68-5.29 6.36-10.38 12.89-15.54 19.35-8.03 9.62-15.67 19.56-23.52 29.34-1.37 1.68-3.13 2.98-4.82 4.34l-2.45-2.13c-.17-6.91-.09-13.82-.25-20.72-1.24-13.64-.16-27.45-2.55-41-.47-16.08-1.19-32.16-2.54-48.19-1.09-7.62-.42-15.35-1.43-22.97.79-11.26 1.38-22.55 1.56-33.84.18-22.01.69-44.11-1.88-65.99-.09-6.94.01-13.91.6-20.84-1.69-10.66.92-21.48.68-32.24 1.29-11.29.9-22.7-.04-34 .29-16.08-1.02-32.09-1.51-48.15-.6-3.43-.72-6.91-.59-10.38l-.85.16c-.38-5.05.19-10.1.01-15.15l.83.11c-.26-8.85 1.29-17.6.73-26.46 41.3-.09 82.59.09 123.88.68 12.55.79 25.15.88 37.72.85.42.48 1.24 1.44 1.65 1.92 13.07-2.28 26.41-.51 39.58-1.34 2.12-.4 4.51-.65 5.82-2.63M18.66 15.73c.58 6.03 1.01 12.08.94 18.13-1.61 6.68-.62 13.63-.39 20.41.34 12.57 1.44 25.1 1.63 37.68 1.16 16.65.55 33.38.73 50.07-.33 16.34-1.1 32.66-.71 49.02.9 12.3.41 24.66.49 36.99-.79 7.97-.29 16-.56 23.99.18 17.96-.5 35.96.65 53.88.46 14.52 2.54 28.97 2.27 43.52l.63.11c-.11 4.98.29 9.95.39 14.92l.57.06c-.11 13.32 1.29 26.6 1.57 39.92.29.02.87.07 1.16.1 2.66-3.71 7.01-6.2 8.53-10.67 2.21-6.45 5.5-12.46 8.89-18.34 2.85-4.53 4.51-9.65 6.7-14.49 1.15-2.77 2.46-5.47 3.56-8.25 2.12-5.23 6.63-8.97 8.44-14.33 2.8-6.44 4.99-13.12 7.68-19.6 3.78-11 8.5-21.7 14.31-31.78 7.84-15.78 13.07-32.7 20.1-48.84 2.69-7.17 6.8-13.7 9.28-20.97 5.48-13.42 13.18-25.83 18.28-39.42 1.8-3.59 2.77-7.51 4.33-11.19 10.48-21.39 23.19-41.82 30.83-64.49 6.82-11.64 14.52-22.87 19.75-35.37 4.69-8.54 7.37-17.96 11.02-26.95 3.44-7.5 8.06-14.42 10.78-22.25-13.47-.1-26.94-.14-40.41-.36-12.34-1.23-24.8-.24-37.13-1.49-10.33-.32-20.71.04-31-.78-6.97.64-13.98.12-20.97.31-13.95-1.03-27.98-.56-41.97-.56-6.75.96-13.58.73-20.37 1.02M396.2 232.25c-5.36 1.34-10.09 4.67-15.56 5.42-2.02 2.23-4.8 3.39-7.49 4.56-12.68 5.48-25.77 10.42-37.2 18.37-4.26 2.51-8.97 4.16-13.29 6.56-5.06 1.93-9.29 5.47-14.47 7.1-10.54 4.31-20.03 10.67-30.09 15.92-4.26 1.57-7.71 4.76-12.12 5.95-13.61 5.34-26.25 12.79-38.82 20.19-6.49 2.86-12.94 5.92-18.86 9.87-10.85 6.62-22.23 12.29-33.26 18.61-6.07 3.25-11.41 7.81-17.85 10.38-9.05 4.21-18.48 8.3-25.67 15.45-.52.01-1.57.05-2.1.07-6.92 6.55-16.06 9.94-24.43 14.2-14.28 5.96-26.8 15.2-39.89 23.3-2.38 1.6-4.68 3.32-6.95 5.08-3.22 2.2-6.77 4.38-8.36 8.13.91-.12 2.71-.37 3.62-.5 5.91-.15 11.75-1.02 17.59-1.91 7.27-1.14 14.69-1.04 21.89-2.59 6.35-.34 12.72-.48 19.06-1.05 11.28-1.44 22.69-.7 34.03-.9 2.38.14 5-.49 7.15.83 4.88-1.21 9.94-.51 14.91-.69 19.65.16 39.31-.42 58.96.18 6.28.84 12.65.74 18.94 0 14.7-.38 29.41-.08 44.11-.04 12.54 1.16 25.22.14 37.77 1.39 32.23.95 64.51 1.29 96.63 4.4.16-32.51-.26-65.01-.22-97.52-.86-12.64-.61-25.36-.69-38.04.42-9.66-.28-19.35.67-28.98-.13-11.53.47-23.06.28-34.59-10.72-.9-18.95 7.1-28.29 10.85Z" style="fill-rule:nonzero" transform="translate(-68.204 -2.995) scale(9.11824)"/></svg>