<?xml version="1.0" standalone="no"?>
<!DOCTYPE svg PUBLIC "-//W3C//DTD SVG 20010904//EN"
 "http://www.w3.org/TR/2001/REC-SVG-20010904/DTD/svg10.dtd">
<svg version="1.0" xmlns="http://www.w3.org/2000/svg"
 width="700.000000pt" height="700.000000pt" viewBox="0 0 700.000000 700.000000"
 preserveAspectRatio="xMidYMid meet">
<metadata>
Created by potrace 1.14, written by Peter Selinger 2001-2017
</metadata>
<g transform="translate(0.000000,700.000000) scale(0.100000,-0.100000)"
fill="#000000" stroke="none">
<path d="M3350 6897 c-33 -21 -47 -22 -309 -25 -151 -1 -299 -6 -330 -11 -45
-7 -59 -6 -73 6 -15 13 -58 16 -250 19 -128 2 -273 6 -323 8 -170 10 -2015 18
-2016 9 -1 -11 -6 -138 -13 -286 -3 -64 -7 -121 -10 -126 -8 -12 -11 -225 -4
-236 19 -32 51 -772 52 -1220 0 -188 -10 -448 -19 -496 -3 -13 -5 -80 -4 -149
1 -69 1 -138 1 -155 -3 -234 -2 -374 2 -392 21 -92 29 -947 12 -1263 -12 -228
-10 -427 8 -625 4 -37 9 -108 21 -290 3 -38 7 -133 10 -210 10 -240 14 -316
19 -323 9 -14 21 -290 31 -687 5 -208 7 -232 25 -249 18 -19 19 -19 52 10 19
16 74 80 124 142 49 63 96 121 104 130 9 9 29 35 45 57 17 22 32 42 36 45 6 6
345 431 435 547 34 43 94 116 134 163 40 47 96 112 124 145 77 90 134 151 205
219 35 34 91 97 124 141 33 44 95 118 136 164 66 73 120 135 180 206 9 11 79
94 156 185 77 91 158 187 180 215 22 27 47 56 55 65 146 157 220 243 295 340
33 43 103 132 155 197 53 65 121 152 153 193 31 41 80 100 108 130 29 30 83
97 121 148 63 85 71 92 103 92 24 0 38 -7 49 -22 29 -41 19 -66 -60 -162 -42
-50 -92 -111 -112 -136 -20 -25 -77 -88 -128 -140 -61 -64 -131 -155 -215
-279 -138 -204 -159 -230 -369 -451 -166 -174 -222 -240 -303 -355 -30 -44
-100 -132 -154 -195 -54 -63 -136 -165 -182 -225 -109 -142 -180 -224 -261
-301 -104 -100 -346 -346 -376 -384 -16 -19 -31 -37 -34 -40 -3 -3 -19 -23
-35 -45 -17 -22 -32 -42 -35 -45 -4 -3 -53 -66 -110 -140 -57 -74 -115 -149
-129 -166 -28 -34 -45 -54 -79 -98 -19 -25 -129 -144 -304 -331 -27 -27 -48
-53 -48 -57 0 -18 44 -46 64 -41 11 2 89 6 171 7 83 2 184 8 225 14 41 6 109
14 150 17 41 3 89 8 105 10 17 2 53 7 80 10 28 3 64 8 80 10 27 3 100 10 220
20 22 2 83 6 135 10 52 3 111 8 130 11 50 6 2734 4 2762 -2 12 -3 149 -7 303
-9 154 -2 327 -6 385 -9 107 -6 335 -13 650 -21 96 -2 225 -7 285 -11 61 -4
175 -8 255 -9 179 -4 242 -11 300 -37 25 -11 72 -22 106 -25 53 -5 63 -3 75
15 12 17 14 143 12 808 -1 434 -4 895 -7 1024 -7 292 -8 966 -2 1080 3 47 5
150 5 230 -2 369 6 833 15 915 7 61 10 104 21 275 3 52 8 124 10 160 3 36 7
112 10 170 3 58 8 139 10 180 3 41 7 118 10 170 12 191 13 216 19 280 3 36 8
106 11 155 12 217 19 309 34 405 5 30 9 100 10 155 1 56 4 116 6 135 3 19 6
53 6 75 1 22 6 50 10 63 6 14 4 30 -4 44 -9 16 -9 22 1 25 15 6 16 59 2 68 -8
5 -7 11 1 21 6 8 7 14 2 14 -5 0 -10 15 -9 33 0 62 -14 199 -24 217 -5 10 -29
26 -52 35 -37 16 -74 18 -268 17 -218 -1 -305 -5 -420 -19 -75 -9 -288 -2
-308 11 -5 3 -222 5 -483 6 -261 0 -490 2 -509 5 -59 8 -690 25 -1043 27 -103
0 -190 4 -193 9 -2 5 -16 4 -30 -2 -37 -14 -215 -15 -239 -2 -17 9 -28 7 -55
-10z m-2093 -133 c454 -5 751 -11 923 -18 203 -8 640 -19 843 -20 113 -1 208
-4 212 -7 3 -4 -33 -82 -80 -175 -47 -93 -111 -236 -142 -319 -90 -241 -175
-415 -329 -671 -58 -98 -119 -212 -134 -253 -52 -139 -100 -244 -227 -491
-213 -414 -241 -471 -292 -602 -57 -144 -86 -207 -178 -393 -36 -71 -83 -173
-105 -225 -22 -52 -67 -153 -100 -225 -80 -174 -77 -167 -148 -350 -34 -88
-66 -169 -70 -180 -5 -11 -32 -78 -61 -150 -28 -71 -72 -170 -97 -220 -169
-338 -162 -321 -262 -590 -29 -77 -58 -153 -65 -170 -7 -16 -24 -58 -39 -93
-14 -34 -47 -95 -74 -135 -51 -76 -65 -103 -132 -262 -51 -120 -66 -151 -110
-230 -50 -89 -98 -188 -121 -249 -13 -37 -41 -77 -83 -123 -35 -37 -66 -66
-70 -63 -3 3 -7 48 -10 100 -15 276 -20 383 -20 458 0 45 -3 82 -7 82 -3 0 -7
53 -8 117 -1 64 -4 119 -6 123 -2 3 -7 77 -10 165 -3 87 -8 177 -11 200 -5 50
-11 139 -21 290 -4 61 -7 358 -6 660 0 303 0 685 0 850 0 344 1 705 4 1295 2
356 -3 618 -16 875 -19 333 -22 487 -16 765 1 52 -1 123 -5 158 -3 34 -2 63 2
63 31 4 131 8 359 14 143 4 262 9 264 11 2 2 7 1 12 -1 4 -3 200 -8 436 -11z
m5394 -3547 c-6 -332 -7 -1127 -1 -2107 2 -437 1 -801 -3 -808 -5 -7 -11 -10
-15 -8 -4 2 -45 7 -92 11 -47 4 -107 8 -135 11 -27 2 -95 6 -150 9 -55 2 -138
7 -185 10 -93 5 -270 12 -605 21 -121 3 -256 7 -300 9 -357 14 -649 20 -1000
19 -225 0 -459 0 -520 0 -782 3 -1938 -1 -2000 -6 -44 -4 -129 -10 -190 -13
-60 -3 -117 -8 -125 -10 -22 -6 -96 -14 -175 -20 -61 -5 -187 -21 -236 -30 -9
-2 -52 -6 -95 -10 -43 -3 -94 -8 -112 -10 -17 -3 -32 -3 -32 0 0 17 39 60 84
92 28 21 53 40 56 43 7 9 164 114 280 187 189 120 285 175 409 235 69 33 155
75 191 92 82 39 184 101 217 132 14 13 33 24 42 24 9 0 30 12 46 26 75 65 177
124 395 228 41 20 84 41 95 48 79 51 158 100 200 123 348 192 435 241 525 295
58 34 155 87 215 116 61 29 156 81 213 114 157 92 276 153 397 204 61 26 126
55 145 65 19 10 84 44 145 76 60 31 118 63 130 71 42 27 153 86 245 130 259
124 545 268 592 300 67 44 250 134 438 214 80 33 161 72 180 85 19 13 64 34
100 46 36 12 82 30 102 40 21 11 44 19 52 19 13 0 95 41 227 113 85 46 188 77
235 69 20 -4 20 -7 15 -255z"/>
</g>
</svg>
